PathFileType	4	(X/Y/Z)	Walk7.trc
DataRate	CameraRate	NumFrames	NumMarkers	Units	OrigDataRate	OrigDataStartFrame	OrigNumFrames
200.000000	200.000000	6	59	mm	200.000000	252	565
Frame#	Times		CLAV		STRN		RBack		RASI		RACR1		RUA1		RElbow		RFA1		RWRU		LACR1		LUA1		LFA1		LCAR		RTH1		RTH3		RTH2		RLFC		LTH1		LTH3		LLFC		LTB1		LTB3		LTB4		LMT1		LASI		LTH4		RCAR		LTH2		C7		LTB2		LToe		T10		LMMAL		RFHD		RTH4		LFHD		RPSI		LMT5		LLMAL		RWRR		LElbowM		LPSI		RBHD		RTB1		LElbow		LBHD		RTB2		RTB4		RTB3		RMT1		RToe		LWRU		LWRR		RMMAL		RLMAL		RMT5		RCAL		RElbowM		LCAL
			X1	Y1	Z1	X2	Y2	Z2	X3	Y3	Z3	X4	Y4	Z4	X5	Y5	Z5	X6	Y6	Z6	X7	Y7	Z7	X8	Y8	Z8	X9	Y9	Z9	X10	Y10	Z10	X11	Y11	Z11	X12	Y12	Z12	X13	Y13	Z13	X14	Y14	Z14	X15	Y15	Z15	X16	Y16	Z16	X17	Y17	Z17	X18	Y18	Z18	X19	Y19	Z19	X20	Y20	Z20	X21	Y21	Z21	X22	Y22	Z22	X23	Y23	Z23	X24	Y24	Z24	X25	Y25	Z25	X26	Y26	Z26	X27	Y27	Z27	X28	Y28	Z28	X29	Y29	Z29	X30	Y30	Z30	X31	Y31	Z31	X32	Y32	Z32	X33	Y33	Z33	X34	Y34	Z34	X35	Y35	Z35	X36	Y36	Z36	X37	Y37	Z37	X38	Y38	Z38	X39	Y39	Z39	X40	Y40	Z40	X41	Y41	Z41	X42	Y42	Z42	X43	Y43	Z43	X44	Y44	Z44	X45	Y45	Z45	X46	Y46	Z46	X47	Y47	Z47	X48	Y48	Z48	X49	Y49	Z49	X50	Y50	Z50	X51	Y51	Z51	X52	Y52	Z52	X53	Y53	Z53	X54	Y54	Z54	X55	Y55	Z55	X56	Y56	Z56	X57	Y57	Z57	X58	Y58	Z58	X59	Y59	Z59

252	1.26	-648.49	1324.9	1.4715	-573.15	1099.4	5.0968	-813.14	1297.3	109.64	-627.39	931.71	157.23	-693.8	1336.1	176.23	-682.22	1127.9	242.21	-679.31	1020.2	269.75	-566.82	912.89	252.05	-544.36	802.27	254.4	-719.54	1335.9	-165.49	-780.98	1133.5	-203.59	-799.72	892.04	-231.65	-821.3	731	-238.48	-741.84	731.35	189.29	-775.33	549.46	148.74	-693.75	638.59	137.34	-810.01	447.03	133.08	-677.92	722.01	-161.83	-614.57	548.67	-129.32	-583.61	449.02	-113.65	-515.91	369.77	-39.202	-466.27	188.43	-42.083	-489.04	277.97	-44.651	-284.05	95.244	-84.922	-617.66	922.84	-119.91	-645.67	631.24	-147.64	-484.7	789.89	243.88	-584.8	657.53	-107.37	-773.72	1402.3	11.06	-520.08	271.89	-109.52	-316.22	86.926	-58.682	-805.83	1118.4	10.536	-450	87.258	-7.2485	-605.74	1573.4	39.568	-759.32	640.4	167.08	-615.77	1568.7	-32.802	-833.91	964.43	68.776	-353.01	51.69	-117.37	-467.22	65.186	-85.131	-508.17	834.56	199.21	-825.93	1008.2	-137.39	-831.76	952.27	-45.078	-773.26	1530.7	85.199	-835.23	320.99	56.039	-822.16	1020.2	-207.02	-785.26	1533.7	-41.41	-897.65	249.5	122.43	-887.02	243.58	51.67	-938.54	166.73	46.951	-878.95	34.541	53.564	-836.66	23.622	92.728	-858.41	783.17	-235.68	-797.63	771.93	-199.29	-1000.4	97.624	14.637	-1025.2	88.836	93.372	-930.85	20.768	134.3	-1077.6	67.951	43.806	-706.44	992.04	192.74	-497.68	21.57	-25.408
253	1.265	-642.36	1324.1	0.48199	-566.81	1098.7	4.391	-807.11	1296.6	108.62	-621.48	930.8	156.88	-687.76	1335.4	175.23	-676.32	1127.4	241.46	-673.69	1019.7	269.26	-561.26	912.25	251.72	-538.8	801.64	254.15	-713.43	1334.8	-166.51	-774.97	1132.4	-204.24	-795.17	891.09	-232.01	-818.35	730.19	-238.81	-736.43	730.59	188.88	-770.6	548.8	148.44	-688.72	637.64	136.95	-805.82	446.58	132.74	-670.5	722.39	-161.9	-606.8	549.19	-129.41	-576.17	449.14	-113.87	-509.71	369.2	-39.1	-461.72	187.53	-41.811	-483.64	277.21	-44.451	-280.01	91.096	-84.054	-611.14	922.06	-120.05	-638.06	631.71	-147.65	-479.12	789.32	243.7	-577.5	658.08	-106.93	-767.7	1401.6	9.9854	-514.32	271.5	-109.45	-312.69	83.809	-57.954	-799.56	1117.7	9.856	-446.64	86.176	-7.0336	-600	1572.9	38.654	-754.25	639.69	166.74	-610	1568.2	-33.73	-827.8	963.72	68.256	-349.75	48.925	-116.9	-463.87	64.474	-85.033	-502.58	833.9	198.96	-819.93	1007.3	-137.61	-825.56	951.88	-45.675	-767.47	1529.8	84.189	-832.12	320.61	56.016	-816.41	1019.3	-207.27	-779.43	1532.8	-42.429	-895.37	249.93	122.51	-884.73	243.74	51.818	-937.01	167.41	47.23	-878.92	34.442	53.552	-836.67	23.607	92.686	-854.9	782.71	-235.77	-794.05	770.93	-199.7	-999.52	98.928	15.003	-1024.4	90.451	93.719	-930.83	20.788	134.19	-1077.1	70.165	44.21	-700.64	991.3	192.17	-495.44	21.733	-25.436
254	1.27	-636.2	1323.5	-0.53328	-560.44	1098	3.6699	-801.05	1295.9	107.57	-615.52	929.88	156.47	-681.7	1334.8	174.21	-670.46	1126.9	240.68	-668.13	1019.2	268.73	-555.8	911.62	251.38	-533.39	801	253.9	-707.29	1333.9	-167.57	-768.89	1131.4	-204.92	-790.51	890.2	-232.38	-815.25	729.45	-239.16	-730.95	729.86	188.43	-765.71	548.14	148.11	-683.57	636.72	136.53	-801.42	446.13	132.37	-663.06	722.89	-161.97	-599.01	549.84	-129.52	-568.72	449.36	-114.14	-503.56	368.7	-39.05	-457.43	186.65	-41.567	-478.39	276.49	-44.29	-276.33	86.611	-83.215	-604.62	921.36	-120.23	-630.44	632.3	-147.66	-473.7	788.72	243.55	-570.14	658.75	-106.57	-761.65	1400.9	8.876	-508.72	271.17	-109.41	-309.54	80.47	-57.247	-793.26	1117	9.185	-443.65	85.108	-6.836	-594.25	1572.4	37.722	-749.06	638.99	166.35	-604.21	1567.7	-34.675	-821.66	963.06	67.782	-346.93	46.017	-116.49	-460.93	63.795	-84.949	-497.11	833.23	198.72	-813.88	1006.5	-137.88	-819.36	951.6	-46.238	-761.67	1529	83.149	-828.82	320.26	55.989	-810.59	1018.4	-207.57	-773.58	1532.1	-43.478	-892.91	250.45	122.59	-882.28	243.95	51.982	-935.35	168.19	47.551	-878.89	34.334	53.543	-836.69	23.591	92.631	-851.24	782.3	-235.89	-790.36	770	-200.1	-998.57	100.36	15.433	-1023.6	92.216	94.122	-930.8	20.822	134.08	-1076.4	72.588	44.684	-694.87	990.63	191.56	-493.66	22.004	-25.476
255	1.275	-630.02	1322.9	-1.5707	-554.04	1097.4	2.9383	-794.98	1295.3	106.48	-609.51	928.95	155.98	-675.61	1334.2	173.17	-664.62	1126.4	239.88	-662.62	1018.8	268.18	-550.44	911.02	251.05	-528.15	800.37	253.67	-701.12	1333	-168.65	-762.75	1130.4	-205.62	-785.74	889.36	-232.78	-811.99	728.77	-239.51	-725.38	729.15	187.94	-760.66	547.49	147.74	-678.29	635.85	136.06	-796.77	445.69	131.95	-655.64	723.51	-162.05	-591.23	550.6	-129.65	-561.29	449.69	-114.46	-497.47	368.26	-39.055	-453.36	185.81	-41.357	-473.28	275.82	-44.173	-272.98	81.899	-82.408	-598.09	920.75	-120.45	-622.84	633.02	-147.69	-468.44	788.11	243.41	-562.76	659.56	-106.3	-755.58	1400.3	7.7342	-503.28	270.9	-109.41	-306.73	76.994	-56.563	-786.94	1116.3	8.5268	-440.99	84.082	-6.6597	-588.49	1572	36.775	-743.74	638.3	165.93	-598.4	1567.4	-35.637	-815.51	962.46	67.355	-344.49	43.053	-116.19	-458.35	63.171	-84.883	-491.78	832.55	198.5	-807.77	1005.7	-138.18	-813.17	951.41	-46.763	-755.86	1528.2	82.081	-825.32	319.94	55.957	-804.69	1017.6	-207.9	-767.7	1531.4	-44.557	-890.25	251.05	122.7	-879.65	244.24	52.164	-933.54	169.07	47.914	-878.86	34.216	53.537	-836.72	23.574	92.561	-847.44	781.94	-236.03	-786.54	769.12	-200.49	-997.5	101.93	15.928	-1022.6	94.143	94.581	-930.76	20.876	133.98	-1075.6	75.237	45.227	-689.15	990.04	190.93	-492.26	22.375	-25.536
256	1.28	-623.82	1322.4	-2.6265	-547.6	1096.9	2.2008	-788.88	1294.9	105.38	-603.45	928	155.42	-669.5	1333.8	172.1	-658.82	1126.1	239.07	-657.18	1018.4	267.59	-545.2	910.44	250.72	-523.07	799.75	253.43	-694.91	1332.2	-169.76	-756.54	1129.5	-206.35	-780.85	888.6	-233.19	-808.57	728.17	-239.87	-719.71	728.46	187.41	-755.41	546.84	147.34	-672.86	635.03	135.56	-791.87	445.26	131.5	-648.28	724.23	-162.15	-583.5	551.48	-129.8	-553.9	450.12	-114.84	-491.45	367.91	-39.118	-449.51	185.03	-41.185	-468.32	275.22	-44.105	-269.93	77.075	-81.625	-591.56	920.23	-120.69	-615.3	633.83	-147.73	-463.35	787.48	243.31	-555.39	660.48	-106.14	-749.48	1399.7	6.5631	-497.99	270.71	-109.46	-304.24	73.465	-55.899	-780.62	1115.8	7.8848	-438.61	83.118	-6.5058	-582.71	1571.7	35.812	-738.28	637.63	165.46	-592.57	1567.1	-36.613	-809.36	961.91	66.976	-342.37	40.123	-115.98	-456.07	62.612	-84.836	-486.57	831.87	198.3	-801.61	1005	-138.53	-806.98	951.33	-47.248	-750.03	1527.6	80.986	-821.6	319.66	55.924	-798.7	1016.8	-208.26	-761.81	1530.8	-45.664	-887.37	251.75	122.82	-876.82	244.61	52.365	-931.56	170.06	48.322	-878.84	34.088	53.535	-836.77	23.555	92.475	-843.48	781.66	-236.2	-782.61	768.31	-200.87	-996.29	103.64	16.488	-1021.4	96.244	95.098	-930.7	20.959	133.87	-1074.6	78.133	45.837	-683.47	989.55	190.26	-491.18	22.831	-25.623
257	1.285	-617.59	1322	-3.6967	-541.14	1096.5	1.4621	-782.77	1294.5	104.25	-597.35	927.06	154.78	-663.36	1333.5	171.03	-653.05	1125.8	238.23	-651.79	1018.2	266.97	-540.06	909.9	250.38	-518.16	799.15	253.2	-688.68	1331.4	-170.88	-750.27	1128.7	-207.1	-775.85	887.91	-233.61	-804.98	727.65	-240.23	-713.95	727.8	186.83	-749.96	546.2	146.91	-667.29	634.26	135.01	-786.67	444.84	131.01	-641.01	725.03	-162.27	-575.83	552.46	-129.96	-546.57	450.65	-115.27	-485.51	367.63	-39.241	-445.86	184.31	-41.053	-463.49	274.68	-44.086	-267.17	72.255	-80.86	-585.04	919.81	-120.95	-607.84	634.73	-147.79	-458.42	786.85	243.22	-548.05	661.51	-106.09	-743.36	1399.3	5.3662	-492.84	270.58	-109.56	-302.03	69.96	-55.249	-774.29	1115.4	7.2621	-436.5	82.228	-6.3721	-576.93	1571.5	34.834	-732.66	636.98	164.95	-586.73	1566.9	-37.604	-803.2	961.43	66.644	-340.55	37.306	-115.88	-454.05	62.123	-84.804	-481.5	831.2	198.11	-795.39	1004.3	-138.91	-800.81	951.36	-47.693	-744.19	1527	79.865	-817.62	319.43	55.892	-792.64	1016.1	-208.66	-755.89	1530.3	-46.797	-884.25	252.55	122.97	-873.77	245.05	52.587	-929.37	171.17	48.776	-878.81	33.95	53.535	-836.84	23.532	92.373	-839.36	781.43	-236.39	-778.54	767.57	-201.24	-994.9	105.51	17.115	-1020.1	98.531	95.67	-930.62	21.079	133.77	-1073.5	81.292	46.508	-677.86	989.16	189.57	-490.34	23.35	-25.736
